<svg id="手書き" xmlns="http://www.w3.org/2000/svg" width="406.928" height="110.956" viewBox="0 0 406.928 110.956">
  <path id="パス_440" data-name="パス 440" d="M438.231,2.121c3.145-2.486,6.636-2.147,10.057-2.051.432.012.854.423,1.28.648-.177.245-.311.651-.537.712-4.018,1.082-3.467,4.887-4.508,7.682a11.36,11.36,0,0,0-.511,4.183,4.11,4.11,0,0,0,1.094,2.1c.1.126.94-.241,1.378-.488,2.462-1.388,4.837-2.954,7.387-4.149a7.613,7.613,0,0,1,3.757-.252c.471.045.868.867,1.3,1.334a9.237,9.237,0,0,1-1.543.66,40.074,40.074,0,0,0-4.077.84c-3.78,1.312-5.9,4.078-6.8,7.951-.222.955-.481,1.416.75,1.655,1.723.333,2.392,1.181.67,2.484-2.288,1.732-2.411,3.8-1.235,6.232.714,1.478,1.7,2.831-.693,4.2-1.969,1.126-2.156,7.286-.539,8.989a2.857,2.857,0,0,0,2.567.654c2.666-1.347,5.214-2.937,7.738-4.545.791-.5,1.12-1.077.8-2.422-.77-3.223.389-6.368,1.7-9.352.184-.419.71-.688,1.078-1.027.245.5.758,1.053.684,1.507-.192,1.182-.877,2.31-.932,3.48a38.2,38.2,0,0,0,.374,5.019c.137,1.595.4,3.042-1.551,4.054-2.378,1.23-4.473,3-6.764,4.41-2.029,1.253-4.25,2-6.531.7-2.04-1.16-2.221-3.211-2.244-5.331-.031-2.81.225-5.374,2.211-7.726.62-.734-.232-2.71-.41-4.118-.594.3-1.436.445-1.737.928-1.149,1.841-2.107,3.8-3.168,5.7Q435.9,42.807,432.5,48.8c-.325.571-.691,1.29-1.223,1.53a8.668,8.668,0,0,1-2.454.361c-.009-.826-.328-1.832.028-2.448,1.464-2.535,3.152-4.939,4.713-7.419a5.887,5.887,0,0,0,.989-2.177,56.637,56.637,0,0,0,.517-6.28,9.333,9.333,0,0,0-.638-2.579c-.086-.306-.423-.675-.333-.877,1.018-2.3,2.094-4.567,3.167-6.838.1-.22.357-.377.432-.6.17-.5.271-1.029.4-1.546a5.412,5.412,0,0,0-1.424.679c-2.754,2.523-5.46,5.1-8.214,7.619a.91.91,0,0,1-.863-.133,2.63,2.63,0,0,1-.433-1.594c.477-1.7,1.373-3.3,1.647-5.017.4-2.521.2-5.142.644-7.653.344-1.966,1.42-3.688,1.168-5.931-.105-.936,1.809-2.246,2.99-3.143a29.428,29.428,0,0,1,4.618-2.636m4.42,4.16a23.619,23.619,0,0,0,1.438-1.991,5.424,5.424,0,0,0,.382-1.388c-.48-.087-1.074-.4-1.423-.226-3.213,1.61-6.413,3.252-9.528,5.038-.393.225-.279,1.335-.4,2.036.649-.189,1.558-.169,1.905-.6,1.861-2.316,4.158-3.345,7.626-2.868m-4.42,28.86c1.466-2.7,1.805-6.127,5.043-7.695.323-.156.412-.8.61-1.212a5.124,5.124,0,0,0-1.718-.165c-2.961.774-6.11,6.06-5.443,9.14.032.147.815.132,1.508-.068m-7.28-19.24a11.2,11.2,0,0,0,1.013.98c1.55-1.275,3.089-2.572,4.519-3.979.312-.307.209-1.037.3-1.572-.562.05-1.329-.116-1.652.188-1.377,1.3-2.623,2.736-4.177,4.382m8.06,9.62a26.25,26.25,0,0,0,3.5-2.044c.38-.3.244-1.256.343-1.912-.768-.061-1.993-.447-2.221-.126a11.017,11.017,0,0,0-1.623,4.082m-6.24-4.68c.837-.837,1.709-1.643,2.475-2.541.125-.146-.13-.912-.373-1.02-.76-.335-3.907,2.22-3.937,3.026-.058,1.51.729,1.172,1.836.535m8.58-7.02c-1.131.785-2.31,1.513-3.36,2.394-.254.213-.086.929-.112,1.413a17.392,17.392,0,0,0,3.964-1.361c.345-.211-.132-1.767-.492-2.447m-3.64-2.6c.657.036,1.784.292,1.889.069a11.814,11.814,0,0,0,.626-2.754,17.2,17.2,0,0,0-1.954,1.127C437.985,9.877,437.891,10.347,437.711,11.221Z" transform="translate(-205.027 0)"/>
  <path id="パス_441" data-name="パス 441" d="M79.8,21.084c-3.635,2.123-7.172,4.062-10.632,6.13-2.2,1.316-3.284,4.1-2.484,5.963.128.3.422.7.672.728a1.175,1.175,0,0,0,.856-.534c.61-.949,1.056-2.014,1.73-2.909a6.4,6.4,0,0,1,3.322-2.528c2.47-.819,4.563-2.728,6.892-4.04a11.426,11.426,0,0,1,3.589-1.335c1.977-.339,2.917.874,2.2,2.76C84.6,28.83,83.1,32.281,81.788,35.806a2.584,2.584,0,0,0,.276,2.255c1.937,1.855,4.1,3.472,6.081,5.284a7.182,7.182,0,0,1,1.112,2.085c-.814-.012-1.876.3-2.4-.095a42.509,42.509,0,0,1-5.517-4.856c-1.341-1.446-1.727-.36-2.167.544-.77,1.581-1.288,3.294-2.152,4.815-.431.758-1.4,1.212-2.121,1.8a12.956,12.956,0,0,1,.142-2.971c.248-.9,1.019-1.652,1.367-2.544.96-2.459,2.766-4.612.281-7.6-1.617-1.944.574-4.654,3.352-4.734.955-.028,3.927-3.138,3.728-4.064-.062-.286-1.046-.717-1.277-.568-2.023,1.308-3.986,2.712-5.927,4.141-.285.21-.266.829-.55,1.043-4.256,3.207-4.713,8.029-5.034,12.693-.126,1.832,1.163,3.773,1.858,5.645a15.462,15.462,0,0,0,.948,1.811c-.877-.118-2.105.08-2.555-.421A6.47,6.47,0,0,1,69.374,46.5a4.3,4.3,0,0,0-3.7-4.243c-.836-.2-2.361,1.218-3.107,2.24-1.568,2.151-2.807,4.541-4.237,6.8-.239.377-.787.824-1.143.785a1.353,1.353,0,0,1-.864-1.031c.13-1.205.138-2.629.794-3.533a81.074,81.074,0,0,1,5.833-6.948c1.792-1.962,2.5-6.051.859-8.078-1.278-1.582-.74-2.444.368-3.661A12.66,12.66,0,0,0,65.7,25.96a12.048,12.048,0,0,0-2.848,1.223c-1.725,1.339-3.268,2.911-4.944,4.319a5.742,5.742,0,0,1-1.6.661c-.06-.653-.427-1.607-.13-1.909a67.928,67.928,0,0,1,5.606-5.133c1.25-1.013,2.765-1.693,4.1-2.61,4.054-2.784,5.062-6.956,3.05-11.57-.833-1.91.657-3.376,1.936-4.19a72.371,72.371,0,0,1,8.353-4.259,1.861,1.861,0,0,1,1.7.31,2.713,2.713,0,0,1,.653,1.9c-.188,2.051-.662,4.077-.825,6.128-.111,1.4,2.024,2.557,3.56,2.112a16.136,16.136,0,0,1,3.3-.778c.629-.043,1.3.477,1.948.743a9.8,9.8,0,0,1-2.118,2.248c-.664.366-1.754-.129-2.545.115-1.7.524-3.906.532-3.729,3.361.047.744-.794,1.543-1.358,2.447m-2.47-15.73c-1.8,1.282-3.625,2.536-5.385,3.874a1.413,1.413,0,0,0-.381,1.211c.066.274.621.57.986.612,2.634.3,6.185-2.363,6.6-4.9.2-1.226.2-1.226-1.82-.8m-1.04,13.52c-2.742,1.7-5.5,3.376-8.207,5.135-.414.269-.576.926-.855,1.4a5.559,5.559,0,0,0,1.753-.307q4.323-2.384,8.559-4.922c.4-.24.595-.827.884-1.254-.538-.018-1.076-.036-2.135-.055m-.78-3.38a28.074,28.074,0,0,0-2.64,1.662c-.239.185-.149.793-.21,1.207a3.243,3.243,0,0,0,1.108-.029,34.271,34.271,0,0,0,3.463-1.56,26.879,26.879,0,0,0,2.439-1.655q-1.693.057-3.386.113a1.315,1.315,0,0,0-.774.261m.78-3.38c-1.12.427-2.264.8-3.345,1.315-.282.133-.368.679-.545,1.036.4.083.859.338,1.182.219a30.17,30.17,0,0,0,3.5-1.55,9.818,9.818,0,0,0,1.542-1.239,7.834,7.834,0,0,0-2.34.221m-7.54,25.74c-.347.2-.911.326-1,.6a5.666,5.666,0,0,0-.256,2.232c.024.224.814.365,1.254.545.173-.733.388-1.461.5-2.2.043-.287-.152-.61-.5-1.176m10.66-3.38,1.008-2.632a6.2,6.2,0,0,0-.858-.073A7.6,7.6,0,0,0,79.415,34.474Z" transform="translate(-26.909 -1.153)"/>
  <path id="パス_442" data-name="パス 442" d="M8.436,179.785c.681-1.027,1.045-2.155,1.817-2.779,2.287-1.847.8-4.663,1.953-6.753-.479-.2-1.176-.714-1.4-.555-2.941,2.065-6.822,2.772-8.883,6.141-.261.426-1.043.533-1.583.787-.1-.653-.519-1.521-.247-1.918a16.023,16.023,0,0,1,3.124-3.583,14.254,14.254,0,0,1,4.237-2.26c3.454-1.155,4.579-3.636,4.817-7.019.128-1.815.377-4.056,3.209-3.748a4.283,4.283,0,0,1,1.288.635c-.225.306-.468.6-.672.92a11.8,11.8,0,0,0-1.728,2.909c-.208.762.31,1.722.5,2.594.6-.3,1.194-.614,1.807-.886a15.906,15.906,0,0,1,3.54-1.442c.879-.151,1.875.385,2.819.615a11.688,11.688,0,0,1-2.168,1.864,18.39,18.39,0,0,1-2.816.718c-2.372.754-4.035,2.222-4.248,4.836a6.653,6.653,0,0,0,.544,2.094c.541-.235,1.088-.455,1.621-.707,3.192-1.509,6.241-3.592,10.084-2.222a6.085,6.085,0,0,1,4.294,7.231c-.373,2.276-1.387,4.441-2,6.686-.6,2.187-1.021,4.423-1.605,6.615-.13.487-.616.88-.939,1.316-.371-.474-1.126-1.021-1.052-1.41.592-3.107,1.36-6.18,2.033-9.273.382-1.755.749-3.518,1.01-5.293.307-2.093-.866-3.227-2.759-3.681a3.758,3.758,0,0,0-4.476,1.89c-1.16,2.1-2.087,4.328-3.159,6.479a10.385,10.385,0,0,1-1.6,2.7c-2.495,2.548-2.25,5.517-1.453,8.554.1.366.992.608,1.556.732.325.072.727-.207,1.094-.327.09.53.438,1.237.22,1.556-.571.835-1.606,2.226-2.068,2.089a6.262,6.262,0,0,1-2.87-2.229c-.491-.638-.273-1.778-.64-2.568a2.432,2.432,0,0,0-1.48-1.251c-2.812-.525-4.425-2.745-3.641-5.476a33.837,33.837,0,0,1,1.92-4.58m7.41-1.69c.725-1.072,1.462-2.136,2.164-3.223.122-.19.2-.633.114-.692-.3-.209-.917-.51-1.008-.409-1.328,1.467-2.92,2.836-3.751,4.564-.534,1.109.074,2.768.17,4.18.77-1.128,1.548-2.252,2.3-3.392.079-.119.011-.336.011-1.027m-4.16,3.64-.734-1.774c-.245.214-.618.383-.714.65a38.045,38.045,0,0,0-1.6,5.039c-.109.53.66,1.239,1.028,1.866.5-.44,1.289-.8,1.44-1.337A26.205,26.205,0,0,0,11.686,181.735Z" transform="translate(0 -89.875)"/>
  <path id="パス_443" data-name="パス 443" d="M580.247,187.717a20.872,20.872,0,0,1,9.744-6.414c.62-.206,1.067-.972,1.56-1.51a10.5,10.5,0,0,1,1.126-1.326,1.037,1.037,0,0,1,1.013.126c.88,1.337,1.67,2.734,2.489,4.111-.653.176-1.322.307-1.952.544-.4.151-1.063.473-1.053.693a13.588,13.588,0,0,0,.491,2.374,7.549,7.549,0,0,0,1.1-.647c1.292-1.082,2.5-2.276,3.867-3.253.445-.319,1.273-.1,1.926-.132-.125.541-.067,1.29-.406,1.587a49.587,49.587,0,0,1-5.073,4.044c-1.749,1.169-2.853,5.4-1.548,7.041.257.323.947.381,1.448.414a13.6,13.6,0,0,0,2.854-.005c2.021-.3,4.021-.745,6.036-1.087a7.307,7.307,0,0,1,1.436.034c-.047.418.059,1.067-.167,1.217-1.332.884-2.656,2.03-4.146,2.363-1.815.406-3.8-.012-5.689.161A2.258,2.258,0,0,0,593.7,199.4a22.907,22.907,0,0,0-.561,4.706c-.055,1.884-1.174,2.056-2.171,1.1a15.782,15.782,0,0,1-3.489-4.678c-.745-1.64.629-2.754,2.026-3.6,1.37-.827,2.227-4.446,1.284-5.605a1.67,1.67,0,0,0-1.555-.066c-2.325,1.315-4.538,2.833-6.9,4.065-.674.351-1.726-.024-2.6-.066.462-.724.758-1.713,1.415-2.126a37.508,37.508,0,0,1,6.982-3.808c1.891-.681,2.409-1.954,2.8-3.5a1.8,1.8,0,0,0-.424-1.527,1.653,1.653,0,0,0-1.525-.061c-2.51,1.459-5.88,2-6.4,5.741-.018.132-1.469.371-1.664.114a5.025,5.025,0,0,1-.673-2.373m10.01,13.91,1.171-1.949-1.23-.592A8.481,8.481,0,0,0,590.257,201.627Z" transform="translate(-278.275 -99.627)"/>
  <path id="パス_444" data-name="パス 444" d="M240.679,36.414c-1.539,1.539-2.884,3.024-4.4,4.313-.467.4-1.39.259-2.1.366.047-.826-.236-1.989.2-2.418a33.852,33.852,0,0,1,4.856-3.9c2.885-1.935,5.482-4.42,9-5.228,1.349-.31,3.305-1.5,3.875.546.35,1.258-.532,3.039-1.276,4.35-.427.753-2.135.765-1.04,2.35a5.517,5.517,0,0,1-2.207,1.985c-3.155,1.089-2.046,4.021-2.834,6.111-.046.121.583.707.9.7.536,0,1.1-.5,1.6-.431a21.052,21.052,0,0,1,3.272.868c.1.032.151.659.1.678a10.4,10.4,0,0,1-2.963.968c-2.9.135-3.8,1.03-4.024,3.876a60.731,60.731,0,0,1-1.029,6.327,1.045,1.045,0,0,1-.675.712,1.217,1.217,0,0,1-.847-.547,8.3,8.3,0,0,1,.33-10.019c1-1.345,1.221-3.287,1.693-4.987.068-.246-.383-.816-.7-.935a1.208,1.208,0,0,0-1.031.416c-1.008,1.3-1.931,2.662-2.907,3.985-.318.431-.7.813-1.058,1.217-.339-.507-.909-.984-.978-1.525-.4-3.089,2.5-3.954,4.033-5.749a19.281,19.281,0,0,0,2.244-2.514c.335-.578.084-1.5.1-2.261a20.972,20.972,0,0,0-2.121.739m4.55-1.43.4,2.34a17.358,17.358,0,0,0,1.891-1.539c.793-.844,1.487-1.783,2.2-2.7a6.568,6.568,0,0,0,.505-.908c-.438-.191-1.067-.669-1.282-.525A16.634,16.634,0,0,0,245.229,34.984Z" transform="translate(-112.384 -13.883)"/>
  <path id="パス_445" data-name="パス 445" d="M173.937,15.535c.778,1.348.26,2.131-.927,1.634-3.015-1.263-5.178.316-7.442,1.791a3.536,3.536,0,0,1-1.257.7,5.376,5.376,0,0,1-1.584-.254,11.464,11.464,0,0,0,.376-1.1c.109-.461.16-.936.237-1.4-.3-.005-.69-.138-.872,0-2.561,1.991-5.12,3.986-7.606,6.068-.442.37-.551,1.137-.814,1.72.645-.061,1.292-.109,1.935-.187.41-.05,1.1-.311,1.17-.19a2.578,2.578,0,0,1,.44,1.555c-.972,5.73-1.976,11.456-3.067,17.165-.123.642-.829,1.172-1.264,1.755-.258-.572-.8-1.185-.728-1.709.69-4.8,1.5-9.582,2.241-14.373.062-.4.07-1-.162-1.2a1.246,1.246,0,0,0-1.191.024c-1.081.786-2.015,1.789-3.138,2.5a5.481,5.481,0,0,1-2.112.309c.064-.652-.126-1.558.233-1.918,3.537-3.555,5.172-8.751,10.252-11.093,1.7-.783,2.4-3.585,3.745-5.313a27.029,27.029,0,0,1,4.064-4.21c.466-.384,1.595.036,2.42.088a13.869,13.869,0,0,1-1.176,1.641c-1.3,1.367-2.689,2.655-3.963,4.047-.189.207.051.806.092,1.224a2.68,2.68,0,0,0,.908-.23c1.345-.95,2.617-2.014,4.011-2.882a1.872,1.872,0,0,1,1.735-.024C171.69,12.811,172.716,14.141,173.937,15.535Z" transform="translate(-71.122 -3.664)"/>
  <path id="パス_446" data-name="パス 446" d="M281.735,175.509c4.848,6.79,4.411,11.366-.34,17.129-4.121,5-8.756,9.574-13.189,14.313a3.876,3.876,0,0,1-1.435.906,5.3,5.3,0,0,1-1.429.138c.056-.48-.069-1.127.2-1.412,1.584-1.7,3.348-3.236,4.885-4.975,4.345-4.913,9.621-9.141,11.946-15.581,1.12-3.1-1.189-9.347-4.1-10.179a9.5,9.5,0,0,0-6.154.439,34.446,34.446,0,0,0-7.428,5.229c-.748.639-1.811,2.3.508,3.027.406.127.547,1.1.81,1.682a4.978,4.978,0,0,1-1.866.241c-2.667-.757-3.854-3.219-2.245-5.217,3.571-4.436,8.079-7.517,13.921-8.207C278.164,172.764,280.029,173.725,281.735,175.509Z" transform="translate(-125.361 -97.038)"/>
  <path id="パス_447" data-name="パス 447" d="M194.409,57.574a13.539,13.539,0,0,1,1.912,1.988,10.439,10.439,0,0,1-2.832-.094c-5.849-1.852-9.806-6.243-13.71-10.607-1.936-2.163-1.872-2.343-3.122.768-.984,2.45-1.649,5.027-2.557,7.51a9.445,9.445,0,0,1-1.322,1.944c-.416-.866-1.373-1.911-1.156-2.568a75.17,75.17,0,0,1,3.658-9.118c.98-2.026,1.523-3.607.8-6.114-.664-2.31.61-5.2,1.179-7.8.047-.212,1.343-.415,1.884-.193a7.129,7.129,0,0,1,2.181,1.609c1.817,1.806.869,3.857.026,5.557-1.99,4.013-1.941,4.831,1.194,8.137,3.411,3.6,7.008,6.927,11.864,8.982m-15.34-17.16c.352-.872.764-1.727,1.027-2.625a1.761,1.761,0,0,0-.228-1.2,1.078,1.078,0,0,0-.806-.269,5.705,5.705,0,0,0-1.21,2.263C177.8,39.245,178.463,39.973,179.069,40.414Z" transform="translate(-82.364 -15.933)"/>
  <path id="パス_448" data-name="パス 448" d="M145.23,202.6a27.689,27.689,0,0,1-3.142,2.6c-.513-1.127-1.622-2.366-1.434-3.36.8-4.2,1.976-8.336,3.016-12.495.1-.418.206-.837.31-1.256a13.971,13.971,0,0,0-1.249.644c-.56.359-1.086.771-1.626,1.161a6.467,6.467,0,0,1,.012-2.137c.318-.9.754-2.072,1.486-2.444,2.77-1.406,3.178-4.159,4.176-6.593.091-.222-.094-.661.029-.751.914-.665,1.874-1.267,2.82-1.889-.079,1.01-.116,2.026-.255,3.028a12.459,12.459,0,0,1-.491,1.348c-.155.585-.236,1.189-.349,1.785.538.026,1.076.065,1.615.075a20.152,20.152,0,0,1,2.076.016c2.3.285,3.345,2.138,2.126,4.08a12.729,12.729,0,0,1-7.383,5.868,4.91,4.91,0,0,0-2.7,2.427,28.44,28.44,0,0,0-1.61,5.558,5.564,5.564,0,0,0,.152,1.736c.479-.254.948-.532,1.442-.753a9.436,9.436,0,0,1,1.1-.346c-.041.479-.081.959-.122,1.7m6.24-15.86.98-1.62a10.126,10.126,0,0,0-1.781-.7c-2.909-.564-5.042,2.163-4.348,5.5a1.471,1.471,0,0,0,1.223.163C148.815,189.12,150,188.039,151.47,186.74Z" transform="translate(-67.504 -98.519)"/>
  <path id="パス_449" data-name="パス 449" d="M712.343,170.558c-2.3,4.771-4.539,9.38-6.585,14.074a15.346,15.346,0,0,0-1.048,4.746c-.256,2.944-.27,5.889,2.111,8.21.229.223.1.81.144,1.228a3.817,3.817,0,0,1-1.427,0c-2.487-1.048-4.375-5.884-3.441-9.137q1.661-5.783,3.649-11.47c.6-1.728,1.6-3.317,2.354-5a7.65,7.65,0,0,0,.347-1.613,4.743,4.743,0,0,0-1.6.338c-1.722,1.1-3.347,2.354-5.081,3.433a9.888,9.888,0,0,1-2.289.75c.311-1,.314-2.464.988-2.905a44.262,44.262,0,0,1,8.229-4.526,86.946,86.946,0,0,1,10.059-2.67,2.157,2.157,0,0,1,1.283.013,25,25,0,0,1,2.316,1.279c-.672.258-1.331.557-2.018.767C717.716,168.879,715.093,169.648,712.343,170.558Z" transform="translate(-335.752 -93.648)"/>
  <path id="パス_450" data-name="パス 450" d="M670.979,33.65a21.03,21.03,0,0,0,.743-2.117,5.643,5.643,0,0,0-1.937.244c-1.429.753-2.746,1.716-4.159,2.5-.38.212-1.22.294-1.362.093a2.121,2.121,0,0,1-.218-1.537c.079-.356.52-.7.88-.915,3.517-2.081,7.013-4.31,11.363-3.814.728.083,1.383.8,2.072,1.225-.649.269-1.283.587-1.951.8-1.062.33-2.147.587-3.222.874.141.46.288,1.32.423,1.318a9.646,9.646,0,0,0,3.163-.364c1.672-.617,3.819-.581,4.523-2.844.065-.211.788-.217,1.206-.318.072.825.5,1.873.153,2.436-1.453,2.338-4.047,2.742-6.472,3-1.962.211-2.322,1.039-1.727,2.616.986,2.616,2.049,5.2,3.107,7.792.211.517.794,1,.773,1.472a20.6,20.6,0,0,1-.578,3.114,8.626,8.626,0,0,1-1.791-2.069c-1.36-3.329-2.523-6.737-3.863-10.074-.186-.462-1.145-1.092-1.427-.961-1.962.915-3.824,2.043-5.755,3.029a7.674,7.674,0,0,1-1.793.428c.138-.713.034-1.8.457-2.074,1.742-1.133,3.638-2.031,5.492-2.989C669.647,34.227,670.258,34.024,670.979,33.65Z" transform="translate(-318.307 -13.458)"/>
  <path id="パス_451" data-name="パス 451" d="M659.223,184.97c.39-1.582.5-3.083.963-4.468a10.244,10.244,0,0,1,1.684-2.422c.288.9.933,1.866.8,2.7-.474,2.968-1.275,5.881-1.834,8.838a76.764,76.764,0,0,0-1.151,7.822c-.063.751.72,1.573,1.115,2.363a8.043,8.043,0,0,0,1.788-1.075c3.282-3.386,6.471-6.865,9.8-10.2.522-.522,1.63-.46,2.466-.667a8.345,8.345,0,0,1-.966,2.152c-2.642,3.088-5.316,6.153-8.091,9.122a12.758,12.758,0,0,1-3.184,2.319c-2.806,1.546-5.11.407-5.015-2.7.109-3.57.726-7.124,1.127-10.685A27.632,27.632,0,0,1,659.223,184.97Z" transform="translate(-315.65 -99.479)"/>
  <path id="パス_452" data-name="パス 452" d="M209.579,209.771c-3.508-.665-3.888-1.367-2.055-3.937,1.732-2.429,3.739-4.661,5.494-7.075,1.853-2.549,1.329-3.989-1.729-4.533-1.42-.253-2.928.054-3.219-1.925a29.82,29.82,0,0,1,4.146-.159,6.162,6.162,0,0,1,2.668,1.018c1.786,1.162,2.786,2.85,1.413,4.8-1.956,2.781-4.208,5.354-6.3,8.039a5.743,5.743,0,0,0-.57,1.274,4.312,4.312,0,0,0,1.427-.1c3.214-1.426,6.394-2.931,9.608-4.358a14.676,14.676,0,0,1,3.179-1.065,5.523,5.523,0,0,1,1.947.367c-.35.6-.556,1.507-1.074,1.752-2.887,1.363-5.832,2.611-8.794,3.808C213.788,208.453,211.8,209.078,209.579,209.771Z" transform="translate(-99.094 -106.211)"/>
  <path id="パス_453" data-name="パス 453" d="M596.224,40.5c1.387-1.474,2.7-3.333,4.467-4.054a85.354,85.354,0,0,1,11.074-3.3c.77-.2,1.725.334,2.6.529a18.591,18.591,0,0,1-2.117,1.471c-.774.4-1.883.386-2.427.954-1.3,1.356-2.792,2.786-3.411,4.477-1.6,4.364-2.81,8.874-4.052,13.36-.168.607.548,1.411.548,2.124a11.4,11.4,0,0,1-.533,2.474,18.1,18.1,0,0,1-1.427-1.374c-1.913-2.274-1.01-4.907-.324-7.137,1.216-3.952,3.068-7.709,4.645-11.551a2.107,2.107,0,0,0,.153-.7c-.514-.189-1.183-.6-1.553-.418-1.374.67-2.6,1.657-3.983,2.294A13.127,13.127,0,0,1,596.224,40.5Z" transform="translate(-286.191 -15.891)"/>
  <path id="パス_454" data-name="パス 454" d="M369.513,197.79c-2.1,1.364-3.956,3.3-6.509,2.53-5.171-1.55-9.011-6.787-3.436-12.345a30.27,30.27,0,0,1,2.215-2.191c2.626-2.124,3.775-4.578,2.191-7.9-.207-.434.274-1.2.437-1.807.7.314,1.9.488,2.034.965.95,3.324,1.055,6.5-1.9,9.139a37.733,37.733,0,0,0-4.414,4.914,4.125,4.125,0,0,0,.639,5.487,4.5,4.5,0,0,0,5.842.469c1.448-1.1,2.85-2.276,4.373-3.263.474-.307,1.277-.107,1.93-.14a6.039,6.039,0,0,1-.766,1.957A24.252,24.252,0,0,1,369.513,197.79Z" transform="translate(-171.279 -98.519)"/>
  <path id="パス_455" data-name="パス 455" d="M298.781,38.843c-3.64,1.906-7.092,3.818-10.7,5.363-.882.378-2.538,1.682-3.314-.154-.124-.294,1.715-1.637,2.8-2.185,3.147-1.585,6.331-3.117,9.588-4.457a19.487,19.487,0,0,1,5.188-1.237c1.065-.12,2.016.2,1.033,1.817a90.968,90.968,0,0,0-4.6,8.745,3.525,3.525,0,0,0,.12,2.783c.818,1.5,1.4-.058,2.133-.365a6.072,6.072,0,0,1,1.936-.147,6.244,6.244,0,0,1-.578,1.789c-1.223,1.717-2.785,1.842-4.642.941s-2.493-2.274-1.666-4.1c1.095-2.41,2.38-4.735,3.6-7.087.234-.451.547-.861.823-1.29A6.678,6.678,0,0,0,298.781,38.843Z" transform="translate(-136.686 -17.352)"/>
  <path id="パス_456" data-name="パス 456" d="M559.533,61.369c.39.714.944,1.355.843,1.868a9.459,9.459,0,0,1-1.166,2.355c-.456-.545-1.22-1.041-1.312-1.642a28.552,28.552,0,0,1-.676-7.193c.447-4.214,1.44-8.369,2.163-12.557.1-.57.193-1.493-.112-1.725-2.6-1.979-.222-2.544.934-3.331,2.353-1.6,4.574-3.634,7.773-3.1a4.977,4.977,0,0,1,1.3.648c-.287.471-.534,1.321-.866,1.356-6.161.635-6.546,5.532-7.442,10.014q-1.129,5.645-2.055,11.329A4.384,4.384,0,0,0,559.533,61.369Z" transform="translate(-267.44 -17.258)"/>
  <path id="パス_457" data-name="パス 457" d="M725.621,190.536c-1.933.98-3.575,2.023-5.3,2.907a6.857,6.857,0,0,1-2.125.33c.178-.776.119-2.021.572-2.249a51.882,51.882,0,0,1,8.152-3.5c1.615-.488,3.5-.1,5.261-.078.229,0,.572.071.668.228,1.77,2.878,4.61,2.352,7.307,2.416.363.009.709.756,1.063,1.161a6.7,6.7,0,0,1-1.677.84c-4.036.741-8.111,1.3-12.119,2.162-1.607.347-3.058,1.379-4.621,1.993a4.6,4.6,0,0,1-1.627.006c.149-.48.154-1.223.47-1.4a59.158,59.158,0,0,1,6.464-3.206,22.3,22.3,0,0,1,3.916-.606c.332-.065.585-.531.874-.812-.246-.238-.5-.694-.735-.681C730.068,190.165,727.975,190.363,725.621,190.536Z" transform="translate(-344.739 -104.136)"/>
  <path id="パス_458" data-name="パス 458" d="M460.593,185.715a38.989,38.989,0,0,1-2.979,5.228c-.377.525-1.371.605-2.084.889a8.494,8.494,0,0,1,.492-2.27c.528-1.006,1.428-1.821,1.924-2.838.3-.611.434-1.837.1-2.1a2.854,2.854,0,0,0-2.344-.41c-1.953.68-3.808,1.64-5.708,2.474a3.858,3.858,0,0,1-1.567.542,6.435,6.435,0,0,1-1.788-.648c.248-.478.376-1.214.763-1.393,2.387-1.107,4.862-2.026,7.243-3.146a4.279,4.279,0,0,0,2.223-1.834c.542-1.534,1.7-1.658,2.515-1.04,1.385,1.051,2.513.48,3.78.087a3.2,3.2,0,0,1,1.424-.267,15.623,15.623,0,0,1,2.247.774,12.2,12.2,0,0,1-1.845,1.751c-.441.279-1.145.107-1.711.23C461.286,182.174,460.189,183.28,460.593,185.715Z" transform="translate(-214.389 -99.835)"/>
  <path id="パス_459" data-name="パス 459" d="M93.7,186.818c.477-4.315.87-8.5,1.126-12.689.045-.736-.285-1.949-.786-2.173-1.2-.539-1.84-1.289-.845-2.146a3.135,3.135,0,0,1,2.865.019,3.277,3.277,0,0,1,1.343,2.459,79,79,0,0,1-.527,11.2,30.585,30.585,0,0,1-5.8,13.149c-.655.918-2.551,2.175-2.756,2-1.522-1.332.224-2.1.8-3.143C90.672,192.681,92.1,189.8,93.7,186.818Z" transform="translate(-42.104 -95.348)"/>
  <path id="パス_460" data-name="パス 460" d="M463.611,215.312c3.913-2.266,7.553-4.554,11.232-6.776a7.668,7.668,0,0,1,1.976-.556c-.1.653.041,1.648-.332,1.907-4.78,3.32-8.85,8.1-15.374,8-3.537-.052-6.032-2.166-8.122-4.738-.266-.327.356-1.375.567-2.089.429.14,1.044.146,1.257.442A8.94,8.94,0,0,0,463.611,215.312Z" transform="translate(-217.407 -113.832)"/>
  <path id="パス_461" data-name="パス 461" d="M176.165,183.156c1.151,4.184,2.313,8.1,3.439,12.036a4.978,4.978,0,0,1,.172,1.728,3.364,3.364,0,0,1-.51,1.074c-.366-.2-.93-.322-1.067-.629a44.124,44.124,0,0,1-3-7.286c-1.114-4.587-1.868-9.267-2.592-13.937a5.393,5.393,0,0,1,.867-2.951c.218-.42,1.023-.534,1.562-.787.042.539.068,1.08.128,1.616C175.492,176.98,175.83,179.937,176.165,183.156Z" transform="translate(-82.84 -96.755)"/>
  <path id="パス_462" data-name="パス 462" d="M572.224,60.715c2.082-1.257,4.047-2.36,5.973-3.53a4.507,4.507,0,0,0,.917-1.087c-.432-.325-.834-.864-1.3-.93a30.128,30.128,0,0,0-3.1-.054c-.6-.021-1.2-.144-1.806-.221.408-.6.74-1.632,1.238-1.719a22.236,22.236,0,0,1,4.37-.119c1.984.051,1.927,1.624,2.211,2.983.033.157.746.287,1.118.237,1.213-.162,2.408-.506,3.623-.584.466-.03.967.467,1.451.724a6.019,6.019,0,0,1-1.182.774c-2.48.9-5.035,1.614-7.446,2.664-1.541.671-2.817,1.933-4.329,2.7a9.417,9.417,0,0,1-2.814.462C571.459,62.29,571.777,61.567,572.224,60.715Z" transform="translate(-274.152 -25.444)"/>
  <path id="パス_463" data-name="パス 463" d="M663.922,75.4c-1.083-1.374-2.078-2.589-2.98-3.869-1.145-1.627-.578-2.844,1.14-3.5a6.884,6.884,0,0,1,2.168-.1,5.415,5.415,0,0,1-.663,1.775c-1.524,1.722.529,2.719,1.1,3.151A20.989,20.989,0,0,0,676.5,77.376a8,8,0,0,1,2.039.677c-.709.458-1.386,1.249-2.131,1.319a15.791,15.791,0,0,1-10.225-2.74C665.511,76.2,664.763,75.893,663.922,75.4Z" transform="translate(-316.97 -32.587)"/>
  <path id="パス_464" data-name="パス 464" d="M770.878,202.063c3.589-.381,2.731,1.985,1.981,3.268a12.046,12.046,0,0,1-4.189,4.411,3.334,3.334,0,0,1-4.51-1.77c-1.082-2.181.068-3.981,1.49-5.632,1.242-1.442,2.472-2.068,3.962-.3.143.17.662.023,1.266.023m-4.68,4.42c.818,2.529,2.011.968,3.064.246a22.219,22.219,0,0,0,1.85-1.572,13.4,13.4,0,0,0-3.417-.912C767.2,204.238,766.7,205.356,766.2,206.483Z" transform="translate(-366.596 -110.462)"/>
  <path id="パス_465" data-name="パス 465" d="M539.039,200.4c-.157,2.388-.051,4.428,1.616,6.066a4.8,4.8,0,0,1,.673,1.265c-.762.071-1.992.466-2.206.157-1.043-1.5-2.331-3.119-2.572-4.831a14.818,14.818,0,0,1,1.844-9.517,8.208,8.208,0,0,1,1.4-1.459,6.527,6.527,0,0,1,.633,2.443C540.122,196.42,539.521,198.27,539.039,200.4Z" transform="translate(-257.476 -106.199)"/>
  <path id="パス_466" data-name="パス 466" d="M372.84,70.659c-4.152,2.694-10.375,1.058-12.425-1.825a1.6,1.6,0,0,1,.029-1.527c.428-.308,1.466-.489,1.706-.227,3.2,3.494,6.834,2.963,10.631,1.3.88-.385,1.869-1.594,2.557.018.123.289-1.082,1.148-1.678,1.74A2.091,2.091,0,0,1,372.84,70.659Z" transform="translate(-172.916 -32.138)"/>
  <path id="パス_467" data-name="パス 467" d="M77.45,180.577a4.516,4.516,0,0,1,.772-2,8.954,8.954,0,0,1,2.107-1.106c-.093.675-.187,1.349-.278,2.025-.053.4-.1.793-.148,1.19a3.835,3.835,0,0,0,1.269-.492c1.148-1.054,2.155-2.273,3.366-3.241.409-.327,1.267-.09,1.92-.111-.133.541-.094,1.246-.427,1.6-2.151,2.258-4.372,4.451-6.6,6.631a4.984,4.984,0,0,1-1.242.66,5.1,5.1,0,0,1-.7-1.519C77.374,183.1,77.45,181.963,77.45,180.577Z" transform="translate(-37.164 -98.856)"/>
  <path id="パス_468" data-name="パス 468" d="M625.573,60.953c1.844-.8,3.543-1.517,5.278-2.132a14.988,14.988,0,0,1,2.288-.443c-.359.775-.513,1.96-1.111,2.26-3.792,1.9-7.669,3.641-11.559,5.338-.376.164-1.161-.208-1.512-.568-.161-.166.125-1.167.45-1.343C621.38,63,623.423,62.063,625.573,60.953Z" transform="translate(-297.081 -28.022)"/>
  <path id="パス_469" data-name="パス 469" d="M532.474,58.713c.786-2.433,1.514-4.63,2.431-6.746.114-.264,1.226-.095,1.876-.126a6.987,6.987,0,0,0-.521,1.282,50.693,50.693,0,0,0-1.091,6.5c-.042.671,1.036,1.429,1.637,2.116.431.494.921.937,1.385,1.4-.883.155-1.873.643-2.63.4C533.447,62.862,532.62,61.1,532.474,58.713Z" transform="translate(-255.591 -24.872)"/>
  <path id="パス_470" data-name="パス 470" d="M471.024,11.328c-1.623,1.1-3.1,2.1-4.622,3.029a1.4,1.4,0,0,1-1.2.16c-.262-.192-.457-.97-.292-1.167a12.1,12.1,0,0,1,2.666-2.667c2.344-1.44,4.78-2.859,7.7-2.57.642.064,1.781.633,1.758.886a8.871,8.871,0,0,1-.916,2.433,9.972,9.972,0,0,0-1.439-.838,2.254,2.254,0,0,0-1.236-.1A14.352,14.352,0,0,0,471.024,11.328Z" transform="translate(-223.131 -3.877)"/>
  <path id="パス_471" data-name="パス 471" d="M517.48,58.28a6.7,6.7,0,0,0,.022,1.544,10.011,10.011,0,0,0,.7,1.515c.28-.359.554-.724.843-1.076.257-.315.531-.617.8-.924.08.4.365.924.208,1.169-.88,1.372-1.866,2.676-2.816,4-.61-.57-1.693-1.1-1.747-1.716a41.173,41.173,0,0,1-.01-7.212c.079-.873,1.006-1.67,1.547-2.5a11.237,11.237,0,0,1,.926,2.581A11.583,11.583,0,0,1,517.48,58.28Z" transform="translate(-247.357 -25.479)"/>
  <path id="パス_472" data-name="パス 472" d="M151.018,26.181c-.738,1.084-1.318,2.058-1.969,2.982a3.453,3.453,0,0,1-.9.651c-.214-.342-.637-.706-.6-1.022.1-.959.057-2.255.643-2.783,2.266-2.041,4.732-3.868,7.186-5.69a2.563,2.563,0,0,1,1.691-.213,4.2,4.2,0,0,1,1.27.654c-.336.29-.652.608-1.011.867C155.272,23.11,153.208,24.578,151.018,26.181Z" transform="translate(-70.822 -9.63)"/>
  <path id="パス_473" data-name="パス 473" d="M525.126,195.2c.543,2.363,1.141,4.454,1.6,6.575a7.5,7.5,0,0,1-.158,2.126c-.6-.334-1.6-.553-1.733-1.021-.873-3.016-1.618-6.075-2.24-9.153-.093-.459.684-1.094,1.059-1.648a9.225,9.225,0,0,1,.939,1.274A7.7,7.7,0,0,1,525.126,195.2Z" transform="translate(-250.843 -106.199)"/>
  <path id="パス_474" data-name="パス 474" d="M637.48,33.956c1.7-.2,3.36.275,4.62-1.352.25-.323,1.683-.021,2.366.36a7.224,7.224,0,0,1,2.025,1.989,7.057,7.057,0,0,1,.717,1.755c-.7-.025-1.753.237-2.053-.124-1.53-1.84-2.919-1.679-4.809-.462-.644.415-2.068-.325-3.1-.656A3.9,3.9,0,0,1,637.48,33.956Z" transform="translate(-305.868 -15.585)"/>
  <path id="パス_475" data-name="パス 475" d="M494.976,168.027c1.882-.213,2.589.1,2.151,2.073-.465,2.1,1.147,3.258,2.825,4.18a6.905,6.905,0,0,1,1.1.935,8.315,8.315,0,0,1-1.308.6c-2.533.678-4.606-2.457-5.236-5.006A5.022,5.022,0,0,1,494.976,168.027Z" transform="translate(-237.333 -94.626)"/>
  <path id="パス_476" data-name="パス 476" d="M625.709,50.125a7.179,7.179,0,0,1,.1-1.846c1.9.073,3.92-.082,5.662.53a2.1,2.1,0,0,1,.854,3.453,17.1,17.1,0,0,1-1.7,1.633,5.875,5.875,0,0,0-.207-2,2.992,2.992,0,0,0-1.5-1.57A23.728,23.728,0,0,0,625.709,50.125Z" transform="translate(-300.337 -23.174)"/>
  <path id="パス_477" data-name="パス 477" d="M187.066,177.8c-.017.97-.033,1.68-.05,2.39a5.044,5.044,0,0,1-1.59-.7,5.56,5.56,0,0,1-1.919-5.335c.19-.8,1.29-1.393,1.976-2.08.181.673.35,1.349.546,2.018C186.366,175.247,186.72,176.393,187.066,177.8Z" transform="translate(-88.021 -96.599)"/>
  <path id="パス_478" data-name="パス 478" d="M197.523,178.93a2.6,2.6,0,0,1,.1,1.4,10.357,10.357,0,0,1-.91,1.585c-.4-.45-1.041-.847-1.149-1.358a55.575,55.575,0,0,1-.969-6.266c-.034-.364.795-.808,1.225-1.215a3.994,3.994,0,0,1,.763,1.167C196.914,175.752,197.133,177.28,197.523,178.93Z" transform="translate(-93.408 -97.079)"/>
  <path id="パス_479" data-name="パス 479" d="M513.081,173.8a28.415,28.415,0,0,1-1.486-3.492c-.146-.657.45-1.48.713-2.228.6.508,1.419.9,1.768,1.547a23.366,23.366,0,0,1,1.578,3.972,7.733,7.733,0,0,1,.127,1.92,11.805,11.805,0,0,1-1.779-.572A2.518,2.518,0,0,1,513.081,173.8Z" transform="translate(-245.558 -94.679)"/>
  <path id="パス_480" data-name="パス 480" d="M278.4,166c-.408.477-.948,1.119-1.482,1.114a27.288,27.288,0,0,1-4.647-.513c-.313-.058-.81-.9-.7-1.117.275-.556.795-1.292,1.311-1.376A6.17,6.17,0,0,1,278.4,166Z" transform="translate(-130.349 -92.733)"/>
  <path id="パス_481" data-name="パス 481" d="M398.121,37.41a4.334,4.334,0,0,1-.777,1.3c-1.6-1.623-3.24-3.217-4.742-4.929-.1-.115.806-1.115,1.245-1.7a5.849,5.849,0,0,1,1.266.989C396.116,34.44,397.038,35.871,398.121,37.41Z" transform="translate(-188.447 -15.398)"/>
  <path id="パス_482" data-name="パス 482" d="M725.893,87.675c-.371.371-.624.6-.852.856-.429.476-.844.964-1.264,1.447-.339-.937-1.066-1.934-.933-2.8.261-1.7,3.285-2.942,4.787-2.123a1.238,1.238,0,0,1,.136,1.19A14.074,14.074,0,0,1,725.893,87.675Z" transform="translate(-346.962 -40.704)"/>
  <path id="パス_483" data-name="パス 483" d="M398.952,179.468a6.812,6.812,0,0,1-1.36-2.169c-.115-.612.38-1.339.6-2.015a12.388,12.388,0,0,1,1.764,1.075,4,4,0,0,1,.737,1.218c.409.771.8,1.55,1.2,2.326A26.933,26.933,0,0,1,398.952,179.468Z" transform="translate(-190.838 -98.137)"/>
  <path id="パス_484" data-name="パス 484" d="M415.551,175.849a5.48,5.48,0,0,1,.444.856c-.818.084-1.946.542-2.389.175a10.747,10.747,0,0,1-2.033-2.967c-.02-.035.98-.829,1.082-.746C413.63,173.953,414.512,174.852,415.551,175.849Z" transform="translate(-197.558 -97.118)"/>
  <path id="パス_485" data-name="パス 485" d="M373.2,39.83l2.458,2.482a16.527,16.527,0,0,1-3.551-.341c-.655-.2-1.1-1.09-1.637-1.67A17.044,17.044,0,0,1,373.2,39.83Z" transform="translate(-177.83 -19.119)"/>
  <path id="パス_486" data-name="パス 486" d="M405.177,35.6a8.526,8.526,0,0,1-2.6-1.363c-.4-.335-.48-1.039-.7-1.577.61-.19,1.407-.72,1.8-.507C404.9,32.827,406.285,33.63,405.177,35.6Z" transform="translate(-192.903 -15.411)"/>
  <path id="パス_487" data-name="パス 487" d="M338.669,36.1a13.249,13.249,0,0,1,.586,1.69,14.821,14.821,0,0,1-2.734-.824c-.2-.1.041-1.081.079-1.657A21.755,21.755,0,0,1,338.669,36.1Z" transform="translate(-161.494 -16.948)"/>
  <path id="パス_488" data-name="パス 488" d="M328.066,39.76c-.656-2.019.721-1.7,1.731-1.656.342.015.667.428,1,.659A16.912,16.912,0,0,1,328.066,39.76Z" transform="translate(-157.392 -18.269)"/>
</svg>
