<svg xmlns="http://www.w3.org/2000/svg" width="672.172" height="669.596" viewBox="0 0 672.172 669.596">
  <g id="グループ_150" data-name="グループ 150" transform="translate(-9776.733 2528.632)">
    <path id="パス_336" data-name="パス 336" d="M535.028,298.625c0-68.377,62.064-123.808,138.623-123.808s138.624,55.431,138.624,123.808" transform="translate(9435.941 -2574.002)" fill="#070203"/>
    <path id="パス_337" data-name="パス 337" d="M860.971,317.857c0,100.717-76.872,182.363-171.7,182.363s-171.7-81.646-171.7-182.363" transform="translate(9423.546 -2473.362)" fill="#070203"/>
    <path id="パス_426" data-name="パス 426" d="M921.341,529.836l-.506-1.356c-22.382,73.08-87.027,125.908-163.3,125.908-94.827,0-171.7-81.646-171.7-182.362h505.572a336.867,336.867,0,0,0,2.213-38.4c0-184.905-150.471-334.8-336.086-334.8S421.448,248.725,421.448,433.63s150.471,334.8,336.086,334.8a336.112,336.112,0,0,0,282.232-152.973ZM754.309,228.345c76.559,0,138.624,55.431,138.624,123.808H615.685C615.685,283.776,677.749,228.345,754.309,228.345Z" transform="translate(9355.285 -2627.464)" fill="#fff"/>
  </g>
</svg>
