<svg xmlns="http://www.w3.org/2000/svg" xmlns:xlink="http://www.w3.org/1999/xlink" width="70" height="70" viewBox="0 0 70 70">
  <defs>
    <clipPath id="clip-path">
      <rect id="長方形_259" data-name="長方形 259" width="70" height="70" transform="translate(1027 2287)" fill="#a0a0a0"/>
    </clipPath>
  </defs>
  <g id="マスクグループ_16" data-name="マスクグループ 16" transform="translate(-1027 -2287)" clip-path="url(#clip-path)">
    <path id="pencil-solid" d="M57.716,30.185,25.8,62.088l-4.64-4.64.479-.479h-6.31a2.2,2.2,0,0,1-2.19-2.19V48.47l-.478.479a5.555,5.555,0,0,0-1.381,2.327l-3.145,10.7,10.7-3.148a6.517,6.517,0,0,0,2.327-1.382l4.64,4.64a12,12,0,0,1-5.119,3.038L4.211,69.972a3.087,3.087,0,0,1-3.249-.944,3.012,3.012,0,0,1-.829-3.134L4.978,49.428A12.068,12.068,0,0,1,8.016,44.31L39.924,12.4ZM67.434,8.074a8.764,8.764,0,0,1,0,12.393l-6.624,6.624L43.017,9.3l6.624-6.624a8.773,8.773,0,0,1,12.4,0Z" transform="translate(1027 2286.891)"/>
  </g>
</svg>
