<svg xmlns="http://www.w3.org/2000/svg" xmlns:xlink="http://www.w3.org/1999/xlink" width="100" height="100" viewBox="0 0 100 100">
  <defs>
    <clipPath id="clip-path">
      <rect id="長方形_263" data-name="長方形 263" width="100" height="100" transform="translate(311 2277)" fill="#ededed"/>
    </clipPath>
  </defs>
  <g id="マスクグループ_17" data-name="マスクグループ 17" transform="translate(-311 -2277)" clip-path="url(#clip-path)">
    <path id="laptop-code-solid" d="M20,15H80V55H90V12.5A7.522,7.522,0,0,0,82.5,5h-65A7.522,7.522,0,0,0,10,12.5V55H20ZM97.5,60H2.5A2.518,2.518,0,0,0,0,62.5V65A10.029,10.029,0,0,0,10,75H90a10.029,10.029,0,0,0,10-10V62.5A2.518,2.518,0,0,0,97.5,60ZM57.172,44.719a3.131,3.131,0,0,0,4.406,0l7.5-7.5a3.131,3.131,0,0,0,0-4.422l-7.5-7.5a3.127,3.127,0,1,0-4.422,4.422L62.453,35l-5.3,5.281A3.136,3.136,0,0,0,57.172,44.719ZM42.828,25.3a3.131,3.131,0,0,0-4.422,0l-7.5,7.5a3.131,3.131,0,0,0,0,4.422l7.5,7.5a3.16,3.16,0,0,0,2.219.906,3.1,3.1,0,0,0,2.2-.906,3.131,3.131,0,0,0,0-4.422L37.547,35l5.3-5.281A3.408,3.408,0,0,0,42.828,25.3Z" transform="translate(311 2302)" fill="#fff"/>
  </g>
</svg>
